<svg width="88" height="71" viewBox="0 0 88 71" fill="none" xmlns="http://www.w3.org/2000/svg">
<path d="M33.3665 33.0201C32.8048 32.5477 31.9178 32.3086 30.7293 32.3086C30.6051 32.3086 30.478 32.3086 30.3464 32.316C29.1268 32.368 27.8229 32.7616 26.4718 33.4924C26.4527 33.503 26.4367 33.5184 26.4256 33.5372C26.4144 33.556 26.4084 33.5775 26.4082 33.5994V50.2175C26.4086 50.2496 26.4215 50.2802 26.4442 50.3027C26.4669 50.3252 26.4975 50.3378 26.5294 50.3378H29.4254C29.4572 50.3378 29.4876 50.3252 29.5101 50.3026C29.5325 50.28 29.5451 50.2494 29.5451 50.2175V42.3659H31.1432V50.2175C31.1436 50.2496 31.1565 50.2802 31.1792 50.3027C31.2019 50.3252 31.2325 50.3378 31.2644 50.3378H34.1885C34.2202 50.3378 34.2507 50.3252 34.2731 50.3026C34.2956 50.28 34.3082 50.2494 34.3082 50.2175V35.6373C34.3082 34.4297 33.9919 33.5489 33.3665 33.0201ZM31.1491 35.2956V40.9801H29.5451V33.7717C29.788 33.6919 30.0408 33.6469 30.2961 33.638H30.3257C30.5282 33.638 31.1432 33.638 31.1432 35.2956H31.1491Z" fill="white"/>
<path d="M40.8784 50.3345C38.8088 50.3345 37.1236 48.9665 37.1236 47.2836V44.9352H40.3315V47.591H41.4239V42.6106H39.7978C38.3195 42.6106 37.1191 41.6392 37.1191 40.4465V35.3532C37.1191 33.6688 38.8044 32.3008 40.874 32.3008C42.9436 32.3008 44.6274 33.6688 44.6274 35.3532V37.7H41.4195V35.0383H40.327V40.0202H41.9532C43.4315 40.0202 44.6318 40.9901 44.6318 42.1843V47.2836C44.6318 48.9665 42.9481 50.3345 40.8784 50.3345Z" fill="white"/>
<path d="M50.1749 32.6406H47.5465C47.3914 32.6406 47.2656 32.767 47.2656 32.9228V50.0505C47.2656 50.2063 47.3914 50.3327 47.5465 50.3327H50.1749C50.33 50.3327 50.4558 50.2063 50.4558 50.0505V32.9228C50.4558 32.767 50.33 32.6406 50.1749 32.6406Z" fill="white"/>
<path d="M58.4808 50.3333L58.4423 50.1744C58.092 48.7172 57.6662 47.2349 57.2597 45.7985C57.0394 45.0291 56.3165 42.2901 56.0992 41.5014L56.1968 43.5408C56.2234 44.1438 56.2397 44.6964 56.2397 45.1242V50.2813L53.3969 50.3333L53.3496 32.72L56.0578 32.6784L56.0948 32.8358C56.4363 34.2603 56.8532 35.7129 57.2567 37.1226C57.5051 37.99 58.1585 40.3903 58.3743 41.1716L58.3433 39.4664C58.3167 38.8619 58.3004 38.3108 58.3004 37.886V32.72L61.1447 32.668L61.192 50.2813L61.1447 50.3333H58.4808Z" fill="white"/>
<path d="M67.4395 32.1758C66.038 32.1758 65.0165 32.4506 64.4001 32.9942C63.7836 33.5379 63.4688 34.4365 63.4688 35.6441V46.863C63.4688 48.0676 63.7851 48.9603 64.4075 49.5158C65.0298 50.0713 66.0469 50.3328 67.4395 50.3328C68.832 50.3328 69.8727 50.0609 70.4744 49.5262C71.0761 48.9915 71.3821 48.0854 71.3821 46.863V35.6485C71.3821 34.4261 71.0731 33.5319 70.4611 32.9898C69.8491 32.4476 68.8379 32.1758 67.4395 32.1758ZM66.6427 35.7228C66.6427 34.8019 66.6826 34.4811 66.7062 34.3711C66.8171 33.8706 67.0521 33.6285 67.4454 33.6285C67.8386 33.6285 68.0855 33.8587 68.1845 34.3503C68.2096 34.4692 68.2392 34.7959 68.2392 35.7035V46.8318C68.2392 47.7869 68.2052 48.0914 68.1845 48.1894C68.0884 48.6707 67.8519 48.8949 67.4454 48.8949C67.0388 48.8949 66.8215 48.6632 66.718 48.1656C66.655 47.7175 66.6302 47.2648 66.6441 46.8125L66.6427 35.7228Z" fill="white"/>
<path d="M14.2573 6.07755L14.1095 5.76562C9.21782 6.39839 6.30853 10.3138 6.51845 15.9864V51.3378L6.76385 51.5072L10.5335 50.0574L10.6503 49.8881V13.3083C10.6503 10.5722 11.6274 8.61602 14.2573 6.07755Z" fill="white"/>
<path d="M20.3234 5.10156C15.5041 5.74027 12.5239 9.86658 12.7308 15.6134V52.0046L12.9762 52.174L16.7518 50.6886L16.8671 50.5193V12.8566C16.8671 10.0344 17.8443 8.0188 20.4741 5.41052L20.3234 5.10156Z" fill="white"/>
<path d="M34.3249 3.20907C32.6988 2.18417 30.7149 2.06386 28.8877 2.87932L28.9365 3.22541C29.1041 3.24052 29.2726 3.2435 29.4406 3.23432C30.1428 3.21798 31.3195 3.19273 32.137 3.99631C32.7815 4.63055 33.1097 5.68961 33.1097 7.14378V20.8863C32.9989 25.1626 32.5184 28.1452 27.1152 30.5411L27.1847 30.8887H27.4508C31.4171 30.8887 33.7483 29.4182 35.0123 28.169C36.2762 26.9198 37.0228 25.329 37.0228 23.903V7.77505C36.9651 5.97035 35.9303 4.22208 34.3249 3.20907Z" fill="white"/>
<path d="M18.614 14.4919V51.9957L18.8638 52.165L22.635 50.6232L22.7473 50.4554V11.6475C22.7473 8.06479 23.8531 5.70604 26.3322 3.986L26.2051 3.65625C21.3134 4.32763 18.4056 8.4792 18.614 14.4919Z" fill="white"/>
<path d="M14.4704 62.253H9.75612V67.4027H6.72266V54.8945H9.75612V59.7962H14.4719V54.8945H17.5024V67.4027H14.4704V62.253Z" fill="white"/>
<path d="M18.709 54.8945H22.149L24.5601 60.1334L26.9534 54.8945H30.3535L26.0487 63.2764V67.4101H23.0167V63.2764L18.709 54.8945Z" fill="white"/>
<path d="M39.2051 57.336H34.6121V59.8611H38.6729V62.2124H34.6121V64.9558H39.2051V67.3978H31.5801V54.8955H39.2051V57.336ZM33.5566 51.3945L37.3159 52.4521V54.3029L33.5566 53.474V51.3945Z" fill="white"/>
<path d="M46.271 54.8945C49.3207 54.8945 50.8448 56.6591 50.8448 58.8322C50.8448 60.4007 49.9948 61.8787 48.079 62.449L50.9513 67.4027H47.5216L44.9405 62.6822H44.2014V67.4042H41.1738V54.8945H46.271ZM46.0936 57.4196H44.2014V60.5196H46.0818C47.2156 60.5196 47.7478 59.9254 47.7478 58.951C47.7493 58.0316 47.2201 57.4256 46.0862 57.4256L46.0936 57.4196Z" fill="white"/>
<path d="M60.3594 57.335H55.7678V59.8601H59.8272V62.2114H55.7678V64.9548H60.3594V67.3968H52.7344V54.8945H60.3594V57.335Z" fill="white"/>
<path d="M66.8299 67.5255C64.1527 67.5255 62.0594 66.1887 61.9707 63.6636H65.1919C65.2806 64.6261 65.8838 65.0895 66.7353 65.0895C67.6222 65.0895 68.1884 64.6439 68.1884 63.9131C68.1884 61.5974 61.9648 62.8436 62.0003 58.4069C62.0003 56.0377 63.9339 54.7188 66.5401 54.7188C69.2528 54.7188 71.08 56.0734 71.2041 58.4604H67.9297C67.8765 57.6598 67.3088 57.1785 66.4928 57.1607C65.7655 57.1429 65.2156 57.5172 65.2156 58.2999C65.2156 60.4745 71.3697 59.4882 71.3697 63.6814C71.3697 65.7787 69.7377 67.5255 66.8299 67.5255Z" fill="white"/>
<path d="M79.0891 60.4825C79.5071 60.4821 79.908 60.3149 80.2035 60.0177C80.4989 59.7206 80.6649 59.3177 80.6649 58.8976V41.1001C79.6276 41.3872 78.528 41.3509 77.5117 40.9961V58.8976C77.5117 59.3179 77.6779 59.7211 77.9737 60.0183C78.2695 60.3155 78.6707 60.4825 79.0891 60.4825Z" fill="white"/>
<path d="M79.2473 32.0547C78.4459 32.0547 77.6625 32.2935 76.9961 32.7408C76.3298 33.1882 75.8104 33.8241 75.5038 34.568C75.1971 35.312 75.1168 36.1306 75.2732 36.9203C75.4295 37.7101 75.8154 38.4355 76.3821 39.0049C76.9488 39.5743 77.6708 39.9621 78.4568 40.1192C79.2428 40.2763 80.0575 40.1956 80.798 39.8875C81.5384 39.5793 82.1712 39.0575 82.6164 38.388C83.0617 37.7184 83.2993 36.9313 83.2993 36.126C83.2989 35.0464 82.8719 34.011 82.1121 33.2476C81.3523 32.4842 80.3219 32.0551 79.2473 32.0547ZM80.0589 34.608C79.8984 34.608 79.7415 34.5602 79.608 34.4706C79.4746 34.381 79.3705 34.2536 79.3091 34.1046C79.2477 33.9556 79.2316 33.7916 79.2629 33.6335C79.2942 33.4753 79.3715 33.33 79.485 33.2159C79.5985 33.1019 79.7431 33.0242 79.9006 32.9928C80.058 32.9613 80.2212 32.9774 80.3695 33.0392C80.5178 33.1009 80.6445 33.2054 80.7337 33.3395C80.8229 33.4736 80.8705 33.6313 80.8705 33.7926C80.8705 34.0088 80.785 34.2162 80.6328 34.3692C80.4806 34.5221 80.2742 34.608 80.0589 34.608ZM81.3362 35.7354C81.2484 35.7354 81.1627 35.7093 81.0898 35.6603C81.0168 35.6113 80.96 35.5417 80.9264 35.4603C80.8929 35.3789 80.8841 35.2893 80.9012 35.2029C80.9183 35.1164 80.9605 35.037 81.0226 34.9747C81.0846 34.9124 81.1636 34.8699 81.2496 34.8527C81.3357 34.8356 81.4248 34.8444 81.5059 34.8781C81.5869 34.9118 81.6562 34.9689 81.7049 35.0422C81.7536 35.1155 81.7796 35.2017 81.7796 35.2898C81.7789 35.4075 81.7318 35.52 81.6487 35.603C81.5656 35.6859 81.4533 35.7324 81.3362 35.7324V35.7354Z" fill="white"/>
<path d="M81.7905 56.3516H81.3544V58.9004C81.3392 59.496 81.0932 60.0621 80.6686 60.478C80.244 60.8939 79.6744 61.1267 79.0815 61.1267C78.4885 61.1267 77.919 60.8939 77.4944 60.478C77.0698 60.0621 76.8237 59.496 76.8086 58.9004V56.3516H74.6074V67.1679H81.7905C82.0342 67.1681 82.2756 67.12 82.5009 67.0265C82.7262 66.9329 82.9308 66.7956 83.1033 66.6225C83.2757 66.4493 83.4125 66.2438 83.5058 66.0175C83.5992 65.7913 83.6472 65.5487 83.6472 65.3038V58.2157C83.6472 57.9708 83.5992 57.7282 83.5058 57.502C83.4125 57.2757 83.2757 57.0701 83.1033 56.897C82.9308 56.7239 82.7262 56.5866 82.5009 56.493C82.2756 56.3994 82.0342 56.3514 81.7905 56.3516Z" fill="white"/>
<path d="M48.8722 24.7227C48.2655 24.7227 47.6724 24.9034 47.168 25.2421C46.6635 25.5808 46.2704 26.0621 46.0382 26.6253C45.806 27.1885 45.7453 27.8082 45.8636 28.4061C45.982 29.0039 46.2741 29.5531 46.7031 29.9842C47.1321 30.4152 47.6787 30.7087 48.2737 30.8277C48.8687 30.9466 49.4855 30.8855 50.046 30.6523C50.6065 30.419 51.0856 30.024 51.4227 29.5171C51.7597 29.0102 51.9396 28.4144 51.9396 27.8048C51.9396 26.9873 51.6164 26.2034 51.0412 25.6254C50.4659 25.0474 49.6857 24.7227 48.8722 24.7227ZM51.0009 27.0547C50.7821 27.2552 50.2455 27.025 49.802 26.5392C49.3585 26.0535 49.1767 25.4995 49.3955 25.296C49.6143 25.0925 50.1509 25.3242 50.5944 25.8099C51.0379 26.2956 51.2123 26.8527 51.0009 27.0547Z" fill="white"/>
</svg>
